<svg width="157" height="58" viewBox="0 0 157 58" fill="none" xmlns="http://www.w3.org/2000/svg">
<rect width="157" height="58" fill="white"/>
<g clip-path="url(#clip0_80_489)">
<path d="M64.9412 30.1689C64.3223 30.1299 64.0515 30.091 64.0515 30.0131V18.4027C64.0515 18.2858 64.6318 18.2468 65.1733 18.2468H68.3454C70.5117 18.2468 72.4459 19.7273 72.4459 21.7144C72.4459 22.5715 72.0978 23.2728 71.5175 23.7793C72.6006 24.4027 73.297 25.4546 73.297 26.6624C73.297 28.6494 71.4014 30.1299 69.2351 30.1299H64.9412V30.1689ZM66.0631 20.039V23.1949H68.6162C69.6994 23.117 70.5117 22.5325 70.5117 21.7144C70.5117 20.8183 69.5833 20.039 68.3841 20.039H66.0631ZM66.0631 24.8312V28.3767H69.2738C70.473 28.3767 71.3628 27.5585 71.3628 26.7014C71.3628 25.8832 70.5891 24.9481 69.4673 24.8702H66.0631V24.8312Z" fill="#004970"/>
<path d="M79.5251 26.078C79.4477 25.9222 79.2543 25.6884 78.9448 25.6884H76.8172V29.9741C76.8172 30.1689 74.8057 30.1689 74.8057 29.9741V18.4027C74.8057 18.3247 75.2312 18.2468 75.7728 18.2468H80.2601C82.4264 18.2468 84.3606 20.078 84.3606 22.065C84.3606 23.6234 83.1614 25.2598 81.5753 25.6105L84.3606 30.0131C84.3606 30.2858 82.1169 30.2468 81.9622 30.0131L79.5251 26.078ZM76.8559 20.039V24.091H80.2988C81.5367 24.091 82.4264 22.9222 82.4264 22.026C82.4264 21.1689 81.498 20.039 80.2988 20.039H76.8559Z" fill="#004970"/>
<path d="M90.0084 18.4416C90.0858 18.2858 90.5887 18.2468 91.2076 18.2468C91.8266 18.2468 92.2908 18.2858 92.4068 18.4416L96.8941 29.9351C96.8941 30.2079 94.9213 30.2079 94.7665 29.9351L93.3739 26.4286H88.9253L87.5326 29.9351C87.3779 30.2079 85.405 30.2079 85.405 29.9351L90.0084 18.4416ZM89.6216 24.7923H92.755L91.1689 20.7793L89.6216 24.7923Z" fill="#004970"/>
<path d="M98.1321 18.4026C98.1321 18.2078 99.8729 18.2078 100.105 18.3636C100.144 18.4026 100.144 18.4026 100.144 18.4026L104.36 27.6753L104.399 27.7143C104.399 27.7533 104.438 27.7533 104.438 27.7143V27.6753L108.693 18.4026C108.693 18.3636 108.693 18.3636 108.731 18.3636C108.964 18.2078 110.704 18.2078 110.704 18.4026V30.013C110.704 30.2078 108.693 30.2078 108.693 30.013V23L105.559 29.8961C105.521 29.9351 105.443 30.1688 105.25 30.1688H103.587C103.393 30.1688 103.277 29.9351 103.277 29.8961L100.144 23V30.013C100.144 30.2078 98.1321 30.2078 98.1321 30.013V18.4026Z" fill="#004970"/>
<path d="M112.716 18.4416C112.716 18.1689 114.727 18.1689 114.727 18.4416V23.3507H120.22V18.4416C120.22 18.1689 122.232 18.1689 122.232 18.4416V29.9741C122.232 30.2468 120.22 30.2468 120.22 29.9741V25.026H114.727V29.9351C114.727 30.2078 112.716 30.2078 112.716 29.9351V18.4416Z" fill="#004970"/>
<path d="M127.919 18.4416C127.996 18.2858 128.499 18.2468 129.118 18.2468C129.737 18.2468 130.201 18.2858 130.317 18.4416L134.804 29.9351C134.804 30.2079 132.831 30.2079 132.677 29.9351L131.284 26.4286H126.835L125.443 29.9351C125.288 30.2079 123.315 30.2079 123.315 29.9351L127.919 18.4416ZM127.57 24.7923H130.704L129.118 20.7793L127.57 24.7923Z" fill="#004970"/>
<path d="M136.042 18.4026C136.042 18.2078 137.822 18.2078 138.015 18.3637L144.282 26.7792V18.4026C144.282 18.1689 146.255 18.1689 146.255 18.4026V30.013C146.255 30.2468 144.437 30.2468 144.282 30.052L138.015 21.6753V30.052C138.015 30.2857 136.042 30.2857 136.042 30.052V18.4026Z" fill="#004970"/>
<path d="M148.266 18.4025C148.266 18.2076 150.278 18.2076 150.278 18.4025V30.0128C150.278 30.2076 148.266 30.2076 148.266 30.0128V18.4025Z" fill="#004970"/>
<path d="M73.2583 36.169C73.2583 34.7664 74.4962 33.3638 76.3917 33.3638H76.6625C78.0551 33.3638 78.7901 34.104 78.9448 34.3768C79.1383 34.6884 78.2485 35.156 78.0551 34.8443C77.9004 34.7274 77.5909 34.2988 76.6625 34.2988H76.3917C75.0764 34.2988 74.3415 35.2729 74.3415 36.13V36.9092C74.3415 37.8053 75.1151 38.7404 76.3917 38.7404H76.6625C77.5909 38.7404 77.9004 38.3508 78.0551 38.1949C78.2485 37.8833 79.1383 38.3508 78.9448 38.6625C78.7901 38.9352 78.0551 39.6755 76.6625 39.6755H76.3917C74.4962 39.6755 73.2583 38.2729 73.2583 36.8703V36.169Z" fill="#43953B"/>
<path d="M79.5251 36.1688C79.5251 34.6493 80.9178 33.4026 82.6199 33.4026H82.8133C84.5154 33.4026 85.9467 34.6493 85.9467 36.1688V36.987C85.9467 38.5454 84.554 39.7922 82.8133 39.7922H82.6199C80.9178 39.7922 79.5251 38.5454 79.5251 36.987V36.1688ZM84.8635 36.1688C84.8635 35.1558 83.9738 34.3377 82.852 34.3377H82.6585C81.5367 34.3377 80.647 35.1558 80.647 36.1688V36.987C80.647 38 81.5367 38.8182 82.6585 38.8182H82.852C83.9738 38.8182 84.8635 38 84.8635 36.987V36.1688Z" fill="#43953B"/>
<path d="M86.7976 33.4805C86.7976 33.3636 87.7647 33.3636 87.8808 33.4415L91.2849 37.922V33.4805C91.2849 33.3636 92.3681 33.3636 92.3681 33.4805V39.6753C92.3681 39.7922 91.3623 39.7922 91.2849 39.6753L87.8808 35.1948V39.6753C87.8808 39.7922 86.7976 39.7922 86.7976 39.6753V33.4805Z" fill="#43953B"/>
<path d="M93.2965 39.4027C92.987 39.3248 93.3352 38.3897 93.6059 38.4677C95.0759 38.8573 95.8109 38.8183 96.3912 38.6625C96.8941 38.5066 97.1262 38.2339 97.1649 37.6884C97.1649 37.2988 96.8941 36.9092 96.1204 36.8313C95.927 36.8313 95.3854 36.7923 95.192 36.7923C95.0372 36.7923 94.6117 36.7923 94.1862 36.5975C93.722 36.4027 93.2965 35.8962 93.2965 35.1949C93.2965 34.4936 93.722 33.9871 94.2636 33.7144C94.7665 33.4417 95.3854 33.3638 95.8496 33.3638C96.7393 33.3638 97.397 33.4807 97.9385 33.7144C98.2093 33.8313 97.7838 34.6884 97.513 34.6105C97.0875 34.4547 96.5846 34.3378 95.8496 34.3378C95.4628 34.3378 95.0759 34.4157 94.8051 34.5716C94.573 34.6884 94.3796 34.8833 94.3796 35.2339C94.3796 35.5456 94.5344 35.7014 94.6504 35.7794C94.8438 35.8573 95.0759 35.8573 95.192 35.8573C95.4241 35.8573 96.0043 35.8962 96.1978 35.8962C97.5517 36.0131 98.248 36.8313 98.248 37.7274C98.248 38.6625 97.7451 39.3638 96.7393 39.6365C95.8109 39.8703 94.8051 39.8313 93.2965 39.4027Z" fill="#43953B"/>
<path d="M99.0991 33.4807C99.0991 33.3248 100.182 33.3248 100.182 33.4807V36.9871C100.182 38.0001 101.072 38.8183 102.194 38.8183C103.316 38.8183 104.205 38.0001 104.205 36.9871V33.4807C104.205 33.3248 105.289 33.3248 105.289 33.4807V36.9871C105.289 38.5456 103.896 39.7923 102.194 39.7923C100.492 39.7923 99.0991 38.5456 99.0991 36.9871V33.4807Z" fill="#43953B"/>
<path d="M106.913 39.7534C106.642 39.7534 106.41 39.7144 106.41 39.6365V33.4807C106.41 33.3248 107.494 33.3248 107.494 33.4807V38.8573H110.975C111.13 38.8573 111.13 39.7534 110.975 39.7534H106.913Z" fill="#43953B"/>
<path d="M112.832 34.3378H110.666C110.55 34.3378 110.55 33.3638 110.666 33.3638H116.081C116.197 33.3638 116.197 34.3378 116.081 34.3378H113.915V39.6755C113.915 39.7923 112.832 39.7923 112.832 39.6755V34.3378Z" fill="#43953B"/>
<path d="M117.977 33.4807C118.016 33.4027 118.286 33.3638 118.635 33.3638C118.983 33.3638 119.215 33.4027 119.292 33.4807L121.729 39.6365C121.729 39.7923 120.685 39.7923 120.569 39.6365L119.834 37.7664H117.435L116.7 39.6365C116.623 39.7923 115.54 39.7923 115.54 39.6365L117.977 33.4807ZM117.783 36.8703H119.486L118.635 34.7274L117.783 36.8703Z" fill="#43953B"/>
<path d="M122.387 33.4805C122.387 33.3636 123.354 33.3636 123.47 33.4415L126.874 37.922V33.4805C126.874 33.3636 127.957 33.3636 127.957 33.4805V39.6753C127.957 39.7922 126.951 39.7922 126.874 39.6753L123.47 35.1948V39.6753C123.47 39.7922 122.387 39.7922 122.387 39.6753V33.4805Z" fill="#43953B"/>
<path d="M128.77 36.169C128.77 34.7664 130.007 33.3638 131.903 33.3638H132.174C133.566 33.3638 134.301 34.104 134.456 34.3768C134.649 34.6884 133.76 35.156 133.566 34.8443C133.412 34.7274 133.102 34.2988 132.174 34.2988H131.903C130.588 34.2988 129.853 35.2729 129.853 36.13V36.9092C129.853 37.8053 130.626 38.7404 131.903 38.7404H132.174C133.102 38.7404 133.412 38.3508 133.566 38.1949C133.76 37.8833 134.649 38.3508 134.456 38.6625C134.301 38.9352 133.566 39.6755 132.174 39.6755H131.903C130.007 39.6755 128.77 38.2729 128.77 36.8703V36.169Z" fill="#43953B"/>
<path d="M137.435 37.0261L134.882 33.4807C134.882 33.3248 136.042 33.3248 136.158 33.4807L137.938 35.9742L139.717 33.4807C139.833 33.3248 140.994 33.3248 140.994 33.4807L138.441 37.0261V39.6755C138.441 39.8313 137.357 39.8313 137.357 39.6755V37.0261H137.435Z" fill="#43953B"/>
<path d="M9.58472 45.5974C10.2037 46.4545 14.2268 46.3377 15.542 46.2597C22.7372 45.8701 28.1917 43.5325 34.5745 41.2338C37.8626 40.0649 42.1952 38.5454 45.6381 37.5714C48.2686 36.8701 50.1254 36.2857 53.0654 36.1688C53.6456 36.1299 57.1659 36.1299 57.2819 36.4415C52.5238 37.2597 48.346 38.5844 44.9031 39.987C37.4758 42.987 30.6674 46.1818 22.273 47.7402C22.3117 47.7792 12.486 49.6493 9.58472 45.5974Z" fill="#43953B"/>
<path d="M54.6901 22.1818L36.2766 9.79224L24.1299 18.4026L36.4314 13.1429V38.1169L42.5434 36.052V21.5974L49.3518 26.4286V34.1429H54.6901V22.1818Z" fill="#004970"/>
<path d="M25.0969 41.1168C25.0969 41.1168 33.0271 37.4545 32.4855 27.8311C32.4855 27.8311 32.0213 23.896 30.8221 21.909C29.6229 19.922 20.6482 27.3636 21.1898 35.1947L21.8474 39.2077C21.8474 39.2077 27.4179 32.974 28.6171 26.3895C28.5784 26.3895 28.0368 36.0129 25.0969 41.1168Z" fill="#43953B"/>
<path d="M16.9346 29.9741C16.9346 29.9741 11.7123 25.4546 14.2267 18.3247C14.2267 18.3247 15.4259 15.4806 16.7412 14.2338C18.0564 12.9871 23.2401 20.5455 21.1511 26.3507L19.7972 29.2338C19.7972 29.2338 16.9346 23.3117 17.4375 18.091C17.4375 18.091 15.8128 25.4546 16.9346 29.9741Z" fill="#43953B"/>
<path d="M18.3659 41.7013C18.3659 41.7013 11.5575 42.4805 8.03731 35.8182C8.03731 35.8182 6.76074 32.9741 6.76074 31.1429C6.76074 29.3117 15.7741 30.6364 18.5593 36.1299L19.7585 39.0909C19.7585 39.0909 13.4917 37.1818 10.0489 33.2468C10.0489 33.2468 14.3041 39.4416 18.3659 41.7013Z" fill="#43953B"/>
</g>
<defs>
<clipPath id="clip0_80_489">
<rect width="143.478" height="38.4156" fill="white" transform="translate(6.76074 9.79224)"/>
</clipPath>
</defs>
</svg>
