<svg width="56" height="56" viewBox="0 0 56 56" fill="none" xmlns="http://www.w3.org/2000/svg">
<rect width="56" height="56" rx="1" fill="#43953B"/>
<path d="M39.4377 14V24.3125H40.5627V14H39.4377ZM38.3127 14.8119L32.4752 17L38.3127 19.1875V14.8119ZM22.3689 18.4375C22.0564 18.4375 21.7314 18.5813 21.4127 18.875C21.0252 19.2375 20.6939 19.8188 20.5502 20.5188C20.4064 21.225 20.4877 21.8938 20.7064 22.375C20.9252 22.8625 21.2439 23.1438 21.6189 23.2188C21.9939 23.3 22.3939 23.1625 22.7877 22.8062C23.1689 22.4437 23.5064 21.8625 23.6502 21.1562C23.7877 20.45 23.7064 19.7812 23.4939 19.3C23.2752 18.8125 22.9564 18.5375 22.5814 18.4563C22.5127 18.4438 22.4377 18.4375 22.3689 18.4375ZM19.9689 23.3438C19.7564 23.4187 19.5377 23.5 19.3002 23.6C17.7471 24.5813 16.6627 25.55 15.5602 27.0813C14.8608 28.05 14.8264 29.7062 14.7739 30.925L16.0739 31.5C16.1283 29.7625 16.0964 29.0438 16.9033 28.0438C17.5177 27.2813 18.1114 26.4812 19.2502 26.2375C19.3502 28.0437 19.0877 30.8438 18.3752 33.7125C19.6564 33.8875 20.7252 33.6688 21.9377 33.3188C25.1064 31.7375 26.5689 33.0812 28.7689 36.175L30.0502 34.1688C28.5127 32.3625 27.0189 29.475 22.7252 30.5875C23.0377 28.8812 23.0752 27.75 23.2627 26.05C23.3002 25.3 23.3127 24.5563 23.3314 23.8188C22.7752 24.2438 22.0877 24.4688 21.3939 24.325C20.8002 24.2 20.3127 23.8313 19.9689 23.3438ZM28.9814 23.8C27.8439 24.9125 27.5939 25.7375 25.8439 26.2L24.4377 24.7C24.4127 25.5 24.3877 26.3187 24.3189 27.15C24.9127 27.6937 25.5189 28.1313 25.7377 28.0625C27.6939 27.475 28.2564 26.7938 29.5752 25.4438L28.9814 23.8ZM37.5627 25.4375V31.4375H31.5627V37.4375H25.5627V42.3188C31.9564 42.3313 36.0502 42.3875 42.4377 42.4312V25.4375H37.5627ZM20.7939 34.7437C19.9439 34.9 19.0564 34.95 18.0789 34.8C17.3983 37.1437 16.4064 39.4437 15.0471 41.2062L17.4614 42.1625C19.1502 39.7938 19.7627 37.75 20.7939 34.7437Z" fill="white"/>
</svg>
