<svg width="56" height="56" viewBox="0 0 56 56" fill="none" xmlns="http://www.w3.org/2000/svg">
<rect width="56" height="56" rx="1" fill="#43953B"/>
<path d="M39.274 16.726H39.272L42.624 17.396C42.804 17.432 42.952 17.564 43.004 17.742C43.0303 17.8285 43.0326 17.9204 43.0108 18.0081C42.9889 18.0958 42.9437 18.1759 42.88 18.24L40.134 20.988C39.8055 21.3159 39.3602 21.5001 38.896 21.5H36.62L30.9 27.222C31.0091 27.634 31.0292 28.0646 30.9589 28.485C30.8885 28.9054 30.7294 29.306 30.4921 29.6601C30.2549 30.0142 29.9448 30.3137 29.5827 30.5386C29.2206 30.7634 28.8148 30.9086 28.3922 30.9643C27.9696 31.02 27.54 30.9851 27.132 30.8617C26.7239 30.7384 26.3469 30.5295 26.0259 30.249C25.705 29.9686 25.4474 29.6229 25.2705 29.2351C25.0936 28.8473 25.0014 28.4262 25 28C25.0003 27.5398 25.1064 27.0858 25.3101 26.6731C25.5138 26.2604 25.8097 25.9001 26.1749 25.62C26.54 25.3399 26.9647 25.1475 27.4161 25.0577C27.8674 24.9679 28.3334 24.983 28.778 25.102L34.5 19.378V17.104C34.5 16.64 34.684 16.194 35.012 15.866L37.76 13.118C37.8241 13.0543 37.9042 13.0091 37.9919 12.9872C38.0796 12.9654 38.1715 12.9677 38.258 12.994C38.436 13.046 38.568 13.194 38.604 13.374L39.274 16.726Z" fill="white"/>
<path d="M15.9999 28C16.0019 29.716 16.372 31.4115 17.085 32.9722C17.7981 34.533 18.8376 35.9227 20.1333 37.0475C21.4291 38.1724 22.9511 39.0063 24.5966 39.4929C26.242 39.9796 27.9727 40.1077 29.6719 39.8686C31.3711 39.6295 32.9992 39.0288 34.4465 38.107C35.8938 37.1851 37.1266 35.9636 38.0616 34.5249C38.9967 33.0861 39.6123 31.4635 39.867 29.7666C40.1217 28.0697 40.0094 26.3379 39.5379 24.688C39.4717 24.4953 39.4454 24.2911 39.4606 24.0878C39.4759 23.8846 39.5323 23.6866 39.6265 23.5059C39.7207 23.3251 39.8507 23.1655 40.0086 23.0366C40.1665 22.9077 40.349 22.8123 40.5449 22.7562C40.7408 22.7001 40.9461 22.6844 41.1483 22.7102C41.3505 22.7359 41.5453 22.8026 41.7209 22.906C41.8965 23.0095 42.0492 23.1476 42.1697 23.3119C42.2902 23.4763 42.376 23.6635 42.4219 23.862C43.3349 27.0571 43.1615 30.4648 41.9288 33.5507C40.6961 36.6365 38.4738 39.2259 35.6107 40.9124C32.7476 42.599 29.4056 43.2874 26.109 42.8696C22.8124 42.4518 19.7478 40.9515 17.3959 38.604C15.0466 36.2527 13.5446 33.1878 13.1259 29.8905C12.7072 26.5931 13.3953 23.2501 15.0823 20.3862C16.7694 17.5223 19.3597 15.2998 22.4467 14.0675C25.5337 12.8353 28.9425 12.6631 32.1379 13.578C32.5184 13.6893 32.8394 13.9466 33.0307 14.2937C33.222 14.6409 33.2682 15.0497 33.159 15.4308C33.0499 15.8119 32.7943 16.1343 32.4482 16.3275C32.1021 16.5207 31.6936 16.5691 31.3119 16.462C29.5251 15.9494 27.6436 15.8588 25.8157 16.1974C23.9879 16.536 22.2637 17.2945 20.7791 18.4132C19.2944 19.5319 18.09 20.9802 17.2606 22.6439C16.4312 24.3075 15.9997 26.1411 15.9999 28Z" fill="white"/>
<path d="M22 28C22.0001 29.0932 22.2987 30.1656 22.8635 31.1015C23.4283 32.0375 24.238 32.8014 25.2051 33.311C26.1723 33.8206 27.2602 34.0565 28.3515 33.9932C29.4429 33.93 30.4962 33.5699 31.398 32.952C32.2996 32.3324 33.0146 31.4782 33.4658 30.4817C33.917 29.4852 34.0872 28.3842 33.958 27.298C33.923 27.0344 33.959 26.7662 34.0621 26.5211C34.1652 26.276 34.3318 26.0629 34.5447 25.9035C34.7576 25.7442 35.0091 25.6445 35.2733 25.6147C35.5375 25.5849 35.8049 25.6261 36.048 25.734C36.291 25.8405 36.5014 26.0095 36.6577 26.2238C36.8141 26.4381 36.9108 26.6901 36.938 26.954C37.1553 28.8102 36.7894 30.688 35.891 32.3268C34.9926 33.9656 33.6064 35.2841 31.9247 36.0992C30.2429 36.9144 28.3492 37.1858 26.5062 36.8758C24.6632 36.5658 22.9624 35.6898 21.6399 34.3693C20.3174 33.0488 19.4388 31.3494 19.126 29.5068C18.8132 27.6643 19.0817 25.7701 19.8944 24.0872C20.707 22.4042 22.0233 21.016 23.6608 20.1151C25.2982 19.2142 27.1755 18.8455 29.032 19.06C29.2308 19.0784 29.4239 19.1364 29.6 19.2304C29.7761 19.3244 29.9317 19.4527 30.0576 19.6076C30.1834 19.7626 30.2771 19.9411 30.3332 20.1327C30.3892 20.3244 30.4064 20.5252 30.3837 20.7236C30.3611 20.9219 30.2991 21.1138 30.2014 21.2879C30.1036 21.462 29.9721 21.6148 29.8146 21.7374C29.657 21.86 29.4765 21.9499 29.2838 22.0019C29.091 22.0538 28.8898 22.0668 28.692 22.04C27.8513 21.9424 26.9995 22.0237 26.1925 22.2787C25.3854 22.5336 24.6415 22.9564 24.0095 23.5193C23.3775 24.0822 22.8717 24.7724 22.5253 25.5447C22.179 26.3169 22 27.1536 22 28Z" fill="white"/>
</svg>
